<?xml version="1.0" encoding="UTF-8" standalone="no"?>
<!DOCTYPE svg PUBLIC "-//W3C//DTD SVG 1.1//EN" "http://www.w3.org/Graphics/SVG/1.1/DTD/svg11.dtd">
<!-- Created with Vectornator (http://vectornator.io/) -->
<svg height="100%" stroke-miterlimit="10" style="fill-rule:nonzero;clip-rule:evenodd;stroke-linecap:round;stroke-linejoin:round;" version="1.1" viewBox="0 0 500 500" width="100%" xml:space="preserve" xmlns="http://www.w3.org/2000/svg" xmlns:xlink="http://www.w3.org/1999/xlink">
<defs/>
<path d="M0 0L500 0L500 500L0 500L0 0Z" fill="#ffffff" fill-rule="nonzero" opacity="1" stroke="none"/>
<g id="background"/>
<clipPath id="ArtboardFrame">
<rect height="500" width="500" x="0" y="0"/>
</clipPath>
<g clip-path="url(#ArtboardFrame)" id="lines">
<g opacity="1">
<path d="M250 250L475-139.711C440.943-159.374 404.455-174.488 366.469-184.667" fill="#ffd800" fill-rule="nonzero" opacity="1" stroke="none"/>
<path d="M250 250L250-200C210.674-200 171.518-194.845 133.531-184.667" fill="#ff8c00" fill-rule="nonzero" opacity="1" stroke="none"/>
<path d="M250 250L25-139.711C-9.05738-120.048-40.3903-96.0058-68.1981-68.1981" fill="#e40303" fill-rule="nonzero" opacity="1" stroke="none"/>
<path d="M250 250L-139.711 25C-159.374 59.0574-174.488 95.5454-184.667 133.531" fill="#750787" fill-rule="nonzero" opacity="1" stroke="none"/>
<path d="M250 250L-200 250C-200 289.326-194.845 328.482-184.667 366.469" fill="#004dff" fill-rule="nonzero" opacity="1" stroke="none"/>
<path d="M250 250L-139.711 475C-120.048 509.057-96.0058 540.39-68.1981 568.198" fill="#008026" fill-rule="nonzero" opacity="1" stroke="none"/>
<path d="M250 250L25 639.711C59.0574 659.374 95.5454 674.488 133.531 684.667" fill="#ffd800" fill-rule="nonzero" opacity="1" stroke="none"/>
<path d="M250 250L250 700C289.326 700 328.482 694.845 366.469 684.667" fill="#ff8c00" fill-rule="nonzero" opacity="1" stroke="none"/>
<path d="M250 250L475 639.711C509.057 620.048 540.39 596.006 568.198 568.198" fill="#e40303" fill-rule="nonzero" opacity="1" stroke="none"/>
<path d="M250 250L639.711 475C659.374 440.943 674.488 404.455 684.667 366.469" fill="#750787" fill-rule="nonzero" opacity="1" stroke="none"/>
<path d="M250 250L700 250C700 210.674 694.845 171.518 684.667 133.531" fill="#004dff" fill-rule="nonzero" opacity="1" stroke="none"/>
<path d="M250 250L639.711 25C620.048-9.05738 596.006-40.3903 568.198-68.1981" fill="#008026" fill-rule="nonzero" opacity="1" stroke="none"/>
</g>
<g opacity="1">
<path d="M250 250L516.781-112.392C485.111-135.706 450.522-154.769 413.897-169.092" fill="#ffd800" fill-rule="nonzero" opacity="1" stroke="none"/>
<path d="M250 250L299.843-197.231C260.759-201.587 221.273-200.801 182.393-194.892" fill="#ff8c00" fill-rule="nonzero" opacity="1" stroke="none"/>
<path d="M250 250L69.55-162.235C33.5242-146.465-0.27893-126.041-30.9956-101.485" fill="#e40303" fill-rule="nonzero" opacity="1" stroke="none"/>
<path d="M250 250L-112.392-16.7811C-135.706 14.8888-154.769 49.4782-169.092 86.1032" fill="#750787" fill-rule="nonzero" opacity="1" stroke="none"/>
<path d="M250 250L-197.231 200.157C-201.587 239.241-200.801 278.727-194.892 317.607" fill="#004dff" fill-rule="nonzero" opacity="1" stroke="none"/>
<path d="M250 250L-162.235 430.45C-146.465 466.476-126.041 500.279-101.485 530.996" fill="#008026" fill-rule="nonzero" opacity="1" stroke="none"/>
<path d="M250 250L-16.7811 612.392C14.8888 635.706 49.4782 654.769 86.1032 669.092" fill="#ffd800" fill-rule="nonzero" opacity="1" stroke="none"/>
<path d="M250 250L200.157 697.231C239.241 701.587 278.727 700.801 317.607 694.892" fill="#ff8c00" fill-rule="nonzero" opacity="1" stroke="none"/>
<path d="M250 250L430.45 662.235C466.476 646.465 500.279 626.041 530.996 601.485" fill="#e40303" fill-rule="nonzero" opacity="1" stroke="none"/>
<path d="M250 250L612.392 516.781C635.706 485.111 654.769 450.522 669.092 413.897" fill="#750787" fill-rule="nonzero" opacity="1" stroke="none"/>
<path d="M250 250L697.231 299.843C701.587 260.759 700.801 221.273 694.892 182.393" fill="#004dff" fill-rule="nonzero" opacity="1" stroke="none"/>
<path d="M250 250L662.235 69.55C646.465 33.5242 626.041-0.27893 601.485-30.9956" fill="#008026" fill-rule="nonzero" opacity="1" stroke="none"/>
</g>
</g>
</svg>
